<?xml version="1.0" encoding="UTF-8"?>
<svg width="48" height="48" version="1.1" viewBox="0 0 12.7 12.7" xmlns="http://www.w3.org/2000/svg" xmlns:xlink="http://www.w3.org/1999/xlink">
<defs>
<linearGradient id="b" x1="5.0522" x2="11.152" y1="285.72" y2="292.4" gradientTransform="matrix(.60056 0 0 .61142 -.047541 113.9)" gradientUnits="userSpaceOnUse">
<stop style="stop-color:#fdbe11" offset="0"/>
<stop style="stop-color:#ef175e" offset="1"/>
</linearGradient>
<linearGradient id="a" x1="6.5403" x2="8.6723" y1="293.91" y2="285.06" gradientTransform="matrix(.60056 0 0 .61142 .47659 113.64)" gradientUnits="userSpaceOnUse">
<stop style="stop-color:#feca3b" offset="0"/>
<stop style="stop-color:#f72b6e" offset="1"/>
</linearGradient>
</defs>
<g transform="translate(0 -284.3)">
<path d="m9.7303 287.91c-0.22291 0.060995-0.42394 0.15418-0.6035 0.27956-0.17647 0.12199-0.32658 0.26756-0.45041 0.43699-0.12384 0.16943-0.21992 0.36254-0.28803 0.57941-0.065015 0.21348-0.097781 0.44214-0.097781 0.68613v1.4668c0 0.50491 0.12398 0.93004 0.37166 1.2757 0.25077 0.34225 0.60677 0.57764 1.0681 0.70641v-0.55913c-0.28793-0.07455-0.51552-0.23695-0.6827-0.48771-0.16409-0.25415-0.246-0.5659-0.246-0.93526v-1.4668c0-0.18637 0.021697-0.35888 0.06504-0.51814 0.043344-0.15927 0.10533-0.29999 0.18583-0.42198 0.080495-0.12538 0.17791-0.23055 0.29246-0.31527 0.11455-0.088104 0.24296-0.15059 0.38537-0.18786zm0.89195 0v0.53884c0.14241 0.037275 0.27082 0.099758 0.38537 0.18786 0.11455 0.084716 0.21241 0.18989 0.2929 0.31527 0.080495 0.12199 0.14204 0.26272 0.18539 0.42198 0.043344 0.15927 0.06504 0.33177 0.06504 0.51814v1.4668c0 0.36936-0.083244 0.68111-0.25043 0.93526-0.16409 0.25076-0.39035 0.41316-0.67828 0.48771v0.55913c0.4613-0.12877 0.81597-0.36416 1.0636-0.70641 0.25077-0.34564 0.37608-0.77078 0.37608-1.2757v-1.4668c0-0.24398-0.034095-0.47264-0.10221-0.68613-0.065015-0.21687-0.15933-0.40998-0.28317-0.57941-0.12384-0.16943-0.27571-0.315-0.45528-0.43699-0.17647-0.12538-0.37617-0.21857-0.59908-0.27956z" style="stroke-linejoin:round;stroke-width:1.0583;stroke:#000"/>
<path d="m9.7303 287.91c-0.22291 0.060995-0.42394 0.15418-0.6035 0.27956-0.17647 0.12199-0.32658 0.26756-0.45041 0.43699-0.12384 0.16943-0.21992 0.36254-0.28803 0.57941-0.065015 0.21348-0.097781 0.44214-0.097781 0.68613v1.4668c0 0.50491 0.12398 0.93004 0.37166 1.2757 0.25077 0.34225 0.60677 0.57764 1.0681 0.70641v-0.55913c-0.28793-0.07455-0.51552-0.23695-0.6827-0.48771-0.16409-0.25415-0.246-0.5659-0.246-0.93526v-1.4668c0-0.18637 0.021697-0.35888 0.06504-0.51814 0.043344-0.15927 0.10533-0.29999 0.18583-0.42198 0.080495-0.12538 0.17791-0.23055 0.29246-0.31527 0.11455-0.088104 0.24296-0.15059 0.38537-0.18786zm0.89195 0v0.53884c0.14241 0.037275 0.27082 0.099758 0.38537 0.18786 0.11455 0.084716 0.21241 0.18989 0.2929 0.31527 0.080495 0.12199 0.14204 0.26272 0.18539 0.42198 0.043344 0.15927 0.06504 0.33177 0.06504 0.51814v1.4668c0 0.36936-0.083244 0.68111-0.25043 0.93526-0.16409 0.25076-0.39035 0.41316-0.67828 0.48771v0.55913c0.4613-0.12877 0.81597-0.36416 1.0636-0.70641 0.25077-0.34564 0.37608-0.77078 0.37608-1.2757v-1.4668c0-0.24398-0.034095-0.47264-0.10221-0.68613-0.065015-0.21687-0.15933-0.40998-0.28317-0.57941-0.12384-0.16943-0.27571-0.315-0.45528-0.43699-0.17647-0.12538-0.37617-0.21857-0.59908-0.27956z" style="fill:#f6ebc6;stroke-linejoin:round;stroke-width:1.5875"/>
<ellipse cx="4.8519" cy="290.58" rx="2.5424" ry="2.5883" style="stroke-linejoin:round;stroke-width:1.5875;stroke:#000"/>
<ellipse cx="4.8519" cy="290.58" rx="2.5424" ry="2.5883" style="fill:none;stroke-linejoin:round;stroke-width:.52917;stroke:url(#b)"/>
<path d="m4.5865 293.31-1.2047-5.2249 3.8817 3.609-5.0455-0.41195 4.2821-2.9548z" style="stroke-linejoin:round;stroke-width:1.5875;stroke:#000"/>
<path d="m4.5865 293.31-1.2047-5.2249 3.8817 3.609-5.0455-0.41195 4.2821-2.9548z" style="fill:none;stroke-linejoin:round;stroke-width:.52917;stroke:url(#a)"/>
<circle cx="1.1839" cy="292.14" r=".43656" style="fill:#fefaec;stroke-linejoin:round;stroke-width:1.0583;stroke:#000"/>
<circle cx="1.1839" cy="292.14" r=".43656" style="fill:#fefaec;stroke-linejoin:round;stroke-width:1.5875"/>
</g>
</svg>
